#!OML:ASF H:\Pregnant\Project 1\Capture day 1\Session 1\femalepreg.ASF
:FULLY-SPECIFIED
:DEGREES
2303
root 9.32884 14.3009 28.602 407.189 -77.5172 -379.982
lowerback -12.8412 -3.08205 -3.06016
upperback -9.90683 -4.30751 2.84039
thorax -2.83379 -2.16292 4.25541
lowerneck -24.9032 -0.852492 0.627645
upperneck 27.5113 -3.45594 4.98535
head 13.5762 -0.819383 1.19728
rclavicle 1.64619e-015 4.49253e-014
rhumerus -49.8477 -0.972444 -64.5809
rradius 32.5748
rwrist 4.14926
rhand -10.0961 -12.0288
rfingers 7.12502
rthumb 15.8911 -41.3968
lclavicle 1.64619e-015 4.49253e-014
lhumerus -43 -4.77282 67.9675
lradius 47.1186
lwrist 36.9092
lhand -24.8438 1.05338
lfingers 7.12502
lthumb 1.66246 31.0267
rfemur -28.9692 9.32854 -4.2513
rtibia 25.8842
rfoot -13.3869 -34.9735
rtoes -14.4097
lfemur -37.7615 -2.15126 371.662
ltibia 22.1989
lfoot -6.87444 10.5255
ltoes -40.2178
2304
root 9.34991 14.3086 28.5781 407.785 -77.6829 -380.508
lowerback -12.8062 -2.98448 -2.85941
upperback -9.88662 -4.19707 2.70114
thorax -2.86174 -2.12033 4.01016
lowerneck -24.9971 -0.797338 0.717071
upperneck 27.5518 -3.45691 5.09237
head 13.6152 -0.792918 1.2251
rclavicle -3.29237e-015 6.75868e-015
rhumerus -49.639 -1.17976 -64.3219
rradius 32.3082
rwrist 4.13893
rhand -10.0367 -12.216
rfingers 7.12502
rthumb 15.9483 -41.5794
lclavicle -3.29237e-015 6.75868e-015
lhumerus -43.0104 -4.3073 67.6894
lradius 46.7002
lwrist 36.9263
lhand -24.8598 1.11462
lfingers 7.12502
lthumb 1.64693 31.088
rfemur -29.2219 9.77075 -4.36083
rtibia 25.7711
rfoot -13.1796 -35.2623
rtoes -14.6177
lfemur -37.4315 -2.44488 371.952
ltibia 21.594
lfoot -6.48356 11.0451
ltoes -40.008
2305
root 9.37202 14.318 28.5567 408.477 -77.9131 -381.129
lowerback -12.7727 -2.88223 -2.66554
upperback -9.86534 -4.08005 2.55777
thorax -2.88721 -2.07445 3.76513
lowerneck -25.0894 -0.725214 0.812208
upperneck 27.5972 -3.44111 5.21133
head 13.6559 -0.756873 1.26006
rclavicle 2.58296e-014 -1.11319e-014
rhumerus -49.3861 -1.39556 -64.0705
rradius 32.0611
rwrist 4.18721
rhand -10.0123 -12.3856
rfingers 7.12502
rthumb 15.9718 -41.7471
lclavicle 2.58296e-014 -1.11319e-014
lhumerus -43.032 -3.79719 67.398
lradius 46.2218
lwrist 36.9485
lhand -24.8775 1.15287
lfingers 7.12502
lthumb 1.62985 31.1264
rfemur -29.5247 10.1353 -4.49784
rtibia 25.6766
rfoot -12.9141 -35.4247
rtoes -14.8248
lfemur -37.0557 -2.69449 372.189
ltibia 20.9733
lfoot -6.09858 11.5665
ltoes -39.8033
2306
root 9.39442 14.329 28.5383 409.319 -78.2063 -381.907
lowerback -12.7417 -2.77017 -2.47141
upperback -9.84093 -3.95014 2.40924
thorax -2.90826 -2.02248 3.51571
lowerneck -25.1782 -0.636061 0.93376
upperneck 27.649 -3.41108 5.3241
head 13.6977 -0.712734 1.29101
rclavicle -2.40654e-014 -6.36111e-015
rhumerus -49.0998 -1.62165 -63.8298
rradius 31.8391
rwrist 4.27648
rhand -10.0283 -12.5311
rfingers 7.12502
rthumb 15.9564 -41.8938
lclavicle -2.40654e-014 -6.36111e-015
lhumerus -43.0687 -3.26532 67.095
lradius 45.6906
lwrist 36.9933
lhand -24.8816 1.18689
lfingers 7.12502
lthumb 1.62587 31.1604
rfemur -29.8636 10.4347 -4.64813
rtibia 25.5889
rfoot -12.6438 -35.477
rtoes -14.9179
lfemur -36.617 -2.92515 372.389
ltibia 20.3315
lfoot -5.72205 12.1166
ltoes -39.5855
2307
root 9.41707 14.3414 28.5227 410.325 -78.5596 -382.852
lowerback -12.7154 -2.65396 -2.2882
upperback -9.81421 -3.81385 2.26289
thorax -2.92277 -1.96697 3.27504
lowerneck -25.2619 -0.527383 1.08276
upperneck 27.7037 -3.3587 5.41777
head 13.7383 -0.658705 1.31415
rclavicle -9.85227e-015 -2.06736e-014
rhumerus -48.7757 -1.82371 -63.6037
rradius 31.6502
rwrist 4.37003
rhand -10.0791 -12.6679
rfingers 7.12502
rthumb 15.9074 -42.0346
lclavicle -9.85227e-015 -2.06736e-014
lhumerus -43.1248 -2.69826 66.7833
lradius 45.1104
lwrist 37.0576
lhand -24.8907 1.23729
lfingers 7.12502
lthumb 1.61709 31.2109
rfemur -30.2354 10.7017 -4.81711
rtibia 25.4987
rfoot -12.436 -35.4547
rtoes -14.8178
lfemur -36.1133 -3.16355 372.567
ltibia 19.6562
lfoot -5.34508 12.7195
ltoes -39.3333
2308
root 9.43957 14.3549 28.5095 411.476 -78.973 -383.936
lowerback -12.7035 -2.53717 -2.13514
upperback -9.79106 -3.67457 2.12126
thorax -2.93055 -1.90876 3.05591
lowerneck -25.337 -0.402255 1.2467
upperneck 27.7616 -3.28705 5.50363
head 13.7777 -0.595982 1.33549
rclavicle 4.89507e-014 -2.0276e-014
rhumerus -48.4234 -2.02256 -63.3752
rradius 31.4968
rwrist 4.48571
rhand -10.1364 -12.7724
rfingers 7.12502
rthumb 15.8523 -42.1434
lclavicle 4.89507e-014 -2.0276e-014
lhumerus -43.2078 -2.10563 66.4693
lradius 44.4876
lwrist 37.1401
lhand -24.8818 1.29227
lfingers 7.12502
lthumb 1.6257 31.2658
rfemur -30.6402 10.9703 -5.02809
rtibia 25.3969
rfoot -12.3243 -35.3998
rtoes -14.4604
lfemur -35.5487 -3.42331 372.717
ltibia 18.9289
lfoot -4.95493 13.3871
ltoes -39.0535
2309
root 9.46139 14.3696 28.4977 412.817 -79.4562 -385.204
lowerback -12.7068 -2.41526 -2.03251
upperback -9.7725 -3.52445 1.98491
thorax -2.9319 -1.84281 2.87113
lowerneck -25.4057 -0.265681 1.41699
upperneck 27.8279 -3.19877 5.57771
head 13.8187 -0.527044 1.3545
rclavicle 1.39398e-014 3.97569e-015
rhumerus -48.0559 -2.20148 -63.1492
rradius 31.3928
rwrist 4.59016
rhand -10.2166 -12.8701
rfingers 7.12502
rthumb 15.775 -42.2473
lclavicle 1.39398e-014 3.97569e-015
lhumerus -43.315 -1.498 66.1621
lradius 43.8245
lwrist 37.2353
lhand -24.8704 1.35456
lfingers 7.12502
lthumb 1.63678 31.328
rfemur -31.0797 11.3044 -5.30377
rtibia 25.2816
rfoot -12.2691 -35.3687
rtoes -13.9346
lfemur -34.8989 -3.70245 372.835
ltibia 18.1234
lfoot -4.5452 14.1234
ltoes -38.745
